<svg id="Capa_1" enable-background="new 0 0 512 512" height="512" viewBox="0 0 512 512" width="512" xmlns="http://www.w3.org/2000/svg"><g><path d="m196 181c-52.264 0-105 13.914-105 45v180c0 31.086 52.736 45 105 45s105-13.914 105-45v-180c0-31.086-52.736-45-105-45zm75 103.724c-4.4 5.209-30.144 16.276-75 16.276s-70.6-11.067-75-16.276v-25.703c19.999 8.141 47.563 11.979 75 11.979s55.001-3.838 75-11.979zm0 60c-4.4 5.209-30.144 16.276-75 16.276s-70.6-11.067-75-16.276v-25.703c19.999 8.141 47.563 11.979 75 11.979s55.001-3.838 75-11.979zm-75-133.724c41.459 0 66.596 9.455 73.639 15-7.043 5.545-32.18 15-73.639 15s-66.596-9.455-73.639-15c7.043-5.545 32.18-15 73.639-15zm0 210c-44.84 0-70.587-11.061-75-16.271v-25.707c19.999 8.14 47.563 11.978 75 11.978s55.001-3.838 75-11.979v25.707c-4.413 5.211-30.16 16.272-75 16.272z"/><path d="m512 136v-136h-136v30h86.363l-91 91h-341.363v-121h-30v512h512v-30h-121v-338.21l91-91v83.21zm-482 346v-331h331v331z"/></g></svg>